# Blender v2.81 (sub 16) OBJ File: 'marker.blend'
# www.blender.org
mtllib marker.mtl
o Cylinder
v 0.000000 -0.200000 -1.000000
v -0.000000 0.200000 -0.828716
v 0.161674 0.200000 -0.812793
v 0.317136 0.200000 -0.765634
v 0.555570 -0.200000 -0.831470
v 0.460410 0.200000 -0.689052
v 0.585991 0.200000 -0.585991
v 0.689052 0.200000 -0.460410
v 0.765634 0.200000 -0.317136
v 0.812793 0.200000 -0.161675
v 0.828716 0.200000 -0.000000
v 0.980785 -0.200000 0.195090
v 0.812793 0.200000 0.161674
v 0.923880 -0.200000 0.382683
v 0.765634 0.200000 0.317136
v 0.689052 0.200000 0.460410
v 0.585991 0.200000 0.585991
v 0.555570 -0.200000 0.831470
v 0.460410 0.200000 0.689052
v 0.317136 0.200000 0.765634
v 0.195090 -0.200000 0.980785
v 0.161674 0.200000 0.812793
v -0.000000 0.200000 0.828716
v -0.161675 0.200000 0.812793
v -0.382684 -0.200000 0.923879
v -0.317136 0.200000 0.765634
v -0.555571 -0.200000 0.831469
v -0.460410 0.200000 0.689052
v -0.707107 -0.200000 0.707106
v -0.585991 0.200000 0.585990
v -0.831470 -0.200000 0.555570
v -0.689053 0.200000 0.460410
v -0.923880 -0.200000 0.382683
v -0.765634 0.200000 0.317135
v -0.812793 0.200000 0.161674
v -0.828716 0.200000 -0.000001
v -0.812792 0.200000 -0.161675
v -0.923879 -0.200000 -0.382684
v -0.765634 0.200000 -0.317137
v -0.689052 0.200000 -0.460411
v -0.585990 0.200000 -0.585992
v -0.460409 0.200000 -0.689053
v -0.317135 0.200000 -0.765634
v -0.195089 -0.200000 -0.980786
v -0.161673 0.200000 -0.812793
v 0.195090 0.200000 -0.980785
v 0.000000 0.200000 -1.000000
v 0.382683 0.200000 -0.923880
v 0.555570 0.200000 -0.831470
v 0.707107 0.200000 -0.707107
v 0.831470 0.200000 -0.555570
v 0.923880 0.200000 -0.382683
v 0.980785 0.200000 -0.195090
v 1.000000 0.200000 -0.000000
v 0.980785 0.200000 0.195090
v 0.923880 0.200000 0.382683
v 0.831470 0.200000 0.555570
v 0.707107 0.200000 0.707107
v 0.555570 0.200000 0.831470
v 0.382683 0.200000 0.923880
v 0.195090 0.200000 0.980785
v -0.000000 0.200000 1.000000
v -0.195091 0.200000 0.980785
v -0.382684 0.200000 0.923879
v -0.555571 0.200000 0.831469
v -0.707107 0.200000 0.707106
v -0.831470 0.200000 0.555570
v -0.923880 0.200000 0.382683
v -0.980785 0.200000 0.195089
v -1.000000 0.200000 -0.000001
v -0.980785 0.200000 -0.195091
v -0.923879 0.200000 -0.382684
v -0.831469 0.200000 -0.555571
v -0.707106 0.200000 -0.707108
v -0.555569 0.200000 -0.831470
v -0.382682 0.200000 -0.923880
v -0.195089 0.200000 -0.980786
v -0.000000 -0.200000 -0.828716
v 0.191342 0.200000 0.461940
v 0.317136 -0.200000 -0.765634
v 0.191342 -0.200000 0.461940
v 0.585991 -0.200000 -0.585991
v 0.689052 -0.200000 -0.460410
v 0.277785 0.200000 0.415735
v 0.812793 -0.200000 -0.161675
v 0.828716 -0.200000 -0.000000
v 0.277785 -0.200000 0.415735
v 0.353553 0.200000 0.353553
v 0.353553 -0.200000 0.353553
v 0.585991 -0.200000 0.585991
v 0.460410 -0.200000 0.689052
v 0.317136 -0.200000 0.765634
v 0.415735 0.200000 0.277785
v 0.415735 -0.200000 0.277785
v 0.461940 0.200000 0.191342
v -0.317136 -0.200000 0.765634
v -0.460410 -0.200000 0.689052
v 0.461940 -0.200000 0.191342
v -0.689053 -0.200000 0.460410
v 0.490393 0.200000 0.097545
v -0.812793 -0.200000 0.161674
v -0.828716 -0.200000 -0.000001
v -0.812792 -0.200000 -0.161675
v -0.765634 -0.200000 -0.317137
v -0.689052 -0.200000 -0.460411
v -0.585990 -0.200000 -0.585992
v -0.460409 -0.200000 -0.689053
v 0.490393 -0.200000 0.097545
v 0.500000 0.200000 -0.000000
v 0.195090 -0.200000 -0.980785
v 0.382683 -0.200000 -0.923880
v 0.707107 -0.200000 -0.707107
v 0.831470 -0.200000 -0.555570
v 0.923880 -0.200000 -0.382683
v 0.980785 -0.200000 -0.195090
v 1.000000 -0.200000 -0.000000
v 0.831470 -0.200000 0.555570
v 0.707107 -0.200000 0.707107
v 0.382683 -0.200000 0.923880
v -0.000000 -0.200000 1.000000
v -0.195091 -0.200000 0.980785
v -0.980785 -0.200000 0.195089
v -1.000000 -0.200000 -0.000001
v -0.980785 -0.200000 -0.195091
v -0.831469 -0.200000 -0.555571
v -0.707106 -0.200000 -0.707108
v -0.555569 -0.200000 -0.831470
v -0.382682 -0.200000 -0.923880
v 0.500000 -0.200000 -0.000000
v 0.161674 -0.200000 -0.812793
v 0.490393 0.200000 -0.097545
v 0.460410 -0.200000 -0.689052
v 0.490393 -0.200000 -0.097545
v 0.461940 0.200000 -0.191342
v 0.765634 -0.200000 -0.317136
v 0.461940 -0.200000 -0.191342
v 0.415735 0.200000 -0.277785
v 0.812793 -0.200000 0.161674
v 0.765634 -0.200000 0.317136
v 0.689052 -0.200000 0.460410
v 0.415735 -0.200000 -0.277785
v 0.353553 0.200000 -0.353554
v 0.353553 -0.200000 -0.353554
v 0.161674 -0.200000 0.812793
v -0.000000 -0.200000 0.828716
v -0.161675 -0.200000 0.812793
v 0.277785 0.200000 -0.415735
v 0.277785 -0.200000 -0.415735
v -0.585991 -0.200000 0.585990
v 0.191342 0.200000 -0.461940
v -0.765634 -0.200000 0.317135
v 0.191342 -0.200000 -0.461940
v 0.097545 0.200000 -0.490393
v 0.097545 -0.200000 -0.490393
v 0.000000 0.200000 -0.500000
v 0.000000 -0.200000 -0.500000
v -0.317135 -0.200000 -0.765634
v -0.161673 -0.200000 -0.812793
v 0.097545 -0.200000 0.490393
v 0.097545 0.200000 0.490393
v -0.000000 -0.200000 0.500000
v -0.000000 0.200000 0.500000
v -0.097545 -0.200000 0.490392
v -0.097545 0.200000 0.490392
v -0.191342 -0.200000 0.461940
v -0.191342 0.200000 0.461940
v -0.277785 -0.200000 0.415734
v -0.277785 0.200000 0.415734
v -0.353554 -0.200000 0.353553
v -0.353554 0.200000 0.353553
v -0.415735 -0.200000 0.277785
v -0.415735 0.200000 0.277785
v -0.461940 -0.200000 0.191341
v -0.461940 0.200000 0.191341
v -0.490393 -0.200000 0.097545
v -0.490393 0.200000 0.097545
v -0.500000 -0.200000 -0.000001
v -0.500000 0.200000 -0.000001
v -0.490393 -0.200000 -0.097546
v -0.490393 0.200000 -0.097546
v -0.461940 -0.200000 -0.191342
v -0.461940 0.200000 -0.191342
v -0.415734 -0.200000 -0.277786
v -0.415734 0.200000 -0.277786
v -0.353553 -0.200000 -0.353554
v -0.353553 0.200000 -0.353554
v -0.277785 -0.200000 -0.415735
v -0.277785 0.200000 -0.415735
v -0.191341 -0.200000 -0.461940
v -0.191341 0.200000 -0.461940
v -0.097544 -0.200000 -0.490393
v -0.097544 0.200000 -0.490393
vt 1.000000 0.500000
vt 1.000000 1.000000
vt 0.968750 1.000000
vt 0.968750 0.500000
vt 0.937500 1.000000
vt 0.937500 0.500000
vt 0.906250 1.000000
vt 0.906250 0.500000
vt 0.875000 1.000000
vt 0.875000 0.500000
vt 0.843750 1.000000
vt 0.843750 0.500000
vt 0.812500 1.000000
vt 0.812500 0.500000
vt 0.781250 1.000000
vt 0.781250 0.500000
vt 0.750000 1.000000
vt 0.750000 0.500000
vt 0.718750 1.000000
vt 0.718750 0.500000
vt 0.687500 1.000000
vt 0.687500 0.500000
vt 0.656250 1.000000
vt 0.656250 0.500000
vt 0.625000 1.000000
vt 0.625000 0.500000
vt 0.593750 1.000000
vt 0.593750 0.500000
vt 0.562500 1.000000
vt 0.562500 0.500000
vt 0.531250 1.000000
vt 0.531250 0.500000
vt 0.500000 1.000000
vt 0.500000 0.500000
vt 0.468750 1.000000
vt 0.468750 0.500000
vt 0.437500 1.000000
vt 0.437500 0.500000
vt 0.406250 1.000000
vt 0.406250 0.500000
vt 0.375000 1.000000
vt 0.375000 0.500000
vt 0.343750 1.000000
vt 0.343750 0.500000
vt 0.312500 1.000000
vt 0.312500 0.500000
vt 0.281250 1.000000
vt 0.281250 0.500000
vt 0.250000 1.000000
vt 0.250000 0.500000
vt 0.218750 1.000000
vt 0.218750 0.500000
vt 0.187500 1.000000
vt 0.187500 0.500000
vt 0.156250 1.000000
vt 0.156250 0.500000
vt 0.125000 1.000000
vt 0.125000 0.500000
vt 0.093750 1.000000
vt 0.093750 0.500000
vt 0.062500 1.000000
vt 0.062500 0.500000
vt 0.031250 1.000000
vt 0.031250 0.500000
vt 0.000000 1.000000
vt 0.000000 0.500000
vt 0.250000 0.448892
vt 0.288802 0.445070
vt 0.296822 0.485388
vt 0.250000 0.490000
vt 0.326113 0.433752
vt 0.341844 0.471731
vt 0.360498 0.415373
vt 0.383337 0.449553
vt 0.390638 0.390638
vt 0.419706 0.419706
vt 0.415372 0.360498
vt 0.449553 0.383337
vt 0.433752 0.326113
vt 0.471731 0.341844
vt 0.445070 0.288802
vt 0.485388 0.296822
vt 0.448892 0.250000
vt 0.490000 0.250000
vt 0.445070 0.211198
vt 0.485388 0.203178
vt 0.433752 0.173887
vt 0.471731 0.158156
vt 0.415373 0.139502
vt 0.449553 0.116663
vt 0.390638 0.109362
vt 0.419706 0.080294
vt 0.360498 0.084627
vt 0.383337 0.050447
vt 0.326113 0.066248
vt 0.341844 0.028269
vt 0.288802 0.054930
vt 0.296822 0.014612
vt 0.250000 0.051108
vt 0.250000 0.010000
vt 0.211198 0.054930
vt 0.203178 0.014612
vt 0.173887 0.066248
vt 0.158156 0.028269
vt 0.139501 0.084627
vt 0.116663 0.050447
vt 0.109362 0.109362
vt 0.080294 0.080294
vt 0.084627 0.139502
vt 0.050447 0.116663
vt 0.066248 0.173887
vt 0.028269 0.158156
vt 0.054930 0.211198
vt 0.014611 0.203179
vt 0.051108 0.250000
vt 0.010000 0.250000
vt 0.054930 0.288802
vt 0.014612 0.296822
vt 0.066248 0.326113
vt 0.028269 0.341844
vt 0.084628 0.360498
vt 0.050447 0.383337
vt 0.109362 0.390638
vt 0.080295 0.419706
vt 0.139502 0.415373
vt 0.116663 0.449553
vt 0.173888 0.433752
vt 0.158156 0.471731
vt 0.211198 0.445070
vt 0.203179 0.485389
vt 0.250000 0.448892
vt 0.288802 0.445070
vt 0.296822 0.485388
vt 0.250000 0.490000
vt 0.326113 0.433752
vt 0.341844 0.471731
vt 0.360498 0.415373
vt 0.383337 0.449553
vt 0.390638 0.390638
vt 0.419706 0.419706
vt 0.415372 0.360498
vt 0.449553 0.383337
vt 0.433752 0.326113
vt 0.471731 0.341844
vt 0.445070 0.288802
vt 0.485388 0.296822
vt 0.448892 0.250000
vt 0.490000 0.250000
vt 0.445070 0.211198
vt 0.485388 0.203178
vt 0.433752 0.173887
vt 0.471731 0.158156
vt 0.415373 0.139502
vt 0.449553 0.116663
vt 0.390638 0.109362
vt 0.419706 0.080294
vt 0.360498 0.084627
vt 0.383337 0.050447
vt 0.326113 0.066248
vt 0.341844 0.028269
vt 0.288802 0.054930
vt 0.296822 0.014612
vt 0.250000 0.051108
vt 0.250000 0.010000
vt 0.211198 0.054930
vt 0.203178 0.014612
vt 0.173887 0.066248
vt 0.158156 0.028269
vt 0.139501 0.084627
vt 0.116663 0.050447
vt 0.109362 0.109362
vt 0.080294 0.080294
vt 0.084627 0.139502
vt 0.050447 0.116663
vt 0.066248 0.173887
vt 0.028269 0.158156
vt 0.054930 0.211198
vt 0.014611 0.203179
vt 0.051108 0.250000
vt 0.010000 0.250000
vt 0.054930 0.288802
vt 0.014612 0.296822
vt 0.066248 0.326113
vt 0.028269 0.341844
vt 0.084628 0.360498
vt 0.050447 0.383337
vt 0.109362 0.390638
vt 0.080295 0.419706
vt 0.139502 0.415373
vt 0.116663 0.449553
vt 0.173888 0.433752
vt 0.158156 0.471731
vt 0.211198 0.445070
vt 0.203179 0.485389
vt 1.000000 0.500000
vt 1.000000 1.000000
vt 0.968750 1.000000
vt 0.968750 0.500000
vt 0.937500 1.000000
vt 0.937500 0.500000
vt 0.906250 1.000000
vt 0.906250 0.500000
vt 0.875000 1.000000
vt 0.875000 0.500000
vt 0.843750 1.000000
vt 0.843750 0.500000
vt 0.812500 1.000000
vt 0.812500 0.500000
vt 0.781250 1.000000
vt 0.781250 0.500000
vt 0.750000 1.000000
vt 0.750000 0.500000
vt 0.718750 1.000000
vt 0.718750 0.500000
vt 0.687500 1.000000
vt 0.687500 0.500000
vt 0.656250 1.000000
vt 0.656250 0.500000
vt 0.625000 1.000000
vt 0.625000 0.500000
vt 0.593750 1.000000
vt 0.593750 0.500000
vt 0.562500 1.000000
vt 0.562500 0.500000
vt 0.531250 1.000000
vt 0.531250 0.500000
vt 0.500000 1.000000
vt 0.500000 0.500000
vt 0.468750 1.000000
vt 0.468750 0.500000
vt 0.437500 1.000000
vt 0.437500 0.500000
vt 0.406250 1.000000
vt 0.406250 0.500000
vt 0.375000 1.000000
vt 0.375000 0.500000
vt 0.343750 1.000000
vt 0.343750 0.500000
vt 0.312500 1.000000
vt 0.312500 0.500000
vt 0.281250 1.000000
vt 0.281250 0.500000
vt 0.250000 1.000000
vt 0.250000 0.500000
vt 0.218750 1.000000
vt 0.218750 0.500000
vt 0.187500 1.000000
vt 0.187500 0.500000
vt 0.156250 1.000000
vt 0.156250 0.500000
vt 0.125000 1.000000
vt 0.125000 0.500000
vt 0.093750 1.000000
vt 0.093750 0.500000
vt 0.062500 1.000000
vt 0.062500 0.500000
vt 0.296822 0.485388
vt 0.250000 0.490000
vt 0.203179 0.485389
vt 0.158156 0.471731
vt 0.116663 0.449553
vt 0.080295 0.419706
vt 0.050447 0.383337
vt 0.028269 0.341844
vt 0.014612 0.296822
vt 0.010000 0.250000
vt 0.014611 0.203179
vt 0.028269 0.158156
vt 0.050447 0.116663
vt 0.080294 0.080294
vt 0.116663 0.050447
vt 0.158156 0.028269
vt 0.203178 0.014612
vt 0.250000 0.010000
vt 0.296822 0.014612
vt 0.341844 0.028269
vt 0.383337 0.050447
vt 0.419706 0.080294
vt 0.449553 0.116663
vt 0.471731 0.158156
vt 0.485388 0.203178
vt 0.490000 0.250000
vt 0.485388 0.296822
vt 0.471731 0.341844
vt 0.449553 0.383337
vt 0.419706 0.419706
vt 0.383337 0.449553
vt 0.341844 0.471731
vt 0.031250 1.000000
vt 0.031250 0.500000
vt 0.000000 1.000000
vt 0.000000 0.500000
vt 0.750000 0.490000
vt 0.796822 0.485388
vt 0.841844 0.471731
vt 0.883337 0.449553
vt 0.919706 0.419706
vt 0.949553 0.383337
vt 0.971731 0.341844
vt 0.985388 0.296822
vt 0.990000 0.250000
vt 0.985388 0.203178
vt 0.971731 0.158156
vt 0.949553 0.116663
vt 0.919706 0.080294
vt 0.883337 0.050447
vt 0.841844 0.028269
vt 0.796822 0.014612
vt 0.750000 0.010000
vt 0.703178 0.014612
vt 0.658156 0.028269
vt 0.616663 0.050447
vt 0.580294 0.080294
vt 0.550447 0.116663
vt 0.528269 0.158156
vt 0.514611 0.203179
vt 0.510000 0.250000
vt 0.514612 0.296822
vt 0.528269 0.341844
vt 0.550447 0.383337
vt 0.580295 0.419706
vt 0.616663 0.449553
vt 0.658156 0.471731
vt 0.703179 0.485389
vn 0.0980 0.0000 -0.9952
vn 0.2903 0.0000 -0.9569
vn 0.4714 0.0000 -0.8819
vn 0.6344 0.0000 -0.7730
vn 0.7730 0.0000 -0.6344
vn 0.8819 0.0000 -0.4714
vn 0.9569 0.0000 -0.2903
vn 0.9952 0.0000 -0.0980
vn 0.9952 0.0000 0.0980
vn 0.9569 0.0000 0.2903
vn 0.8819 0.0000 0.4714
vn 0.7730 0.0000 0.6344
vn 0.6344 0.0000 0.7730
vn 0.4714 0.0000 0.8819
vn 0.2903 0.0000 0.9569
vn 0.0980 0.0000 0.9952
vn -0.0980 0.0000 0.9952
vn -0.2903 0.0000 0.9569
vn -0.4714 0.0000 0.8819
vn -0.6344 0.0000 0.7730
vn -0.7730 0.0000 0.6344
vn -0.8819 0.0000 0.4714
vn -0.9569 0.0000 0.2903
vn -0.9952 0.0000 0.0980
vn -0.9952 0.0000 -0.0980
vn -0.9569 0.0000 -0.2903
vn -0.8819 0.0000 -0.4714
vn -0.7730 0.0000 -0.6344
vn -0.6344 0.0000 -0.7730
vn -0.4714 0.0000 -0.8819
vn -0.2903 0.0000 -0.9569
vn -0.0980 0.0000 -0.9952
vn 0.0000 1.0000 0.0000
vn 0.0000 -1.0000 -0.0000
usemtl None
s off
f 1/1/1 47/2/1 46/3/1 110/4/1
f 110/4/2 46/3/2 48/5/2 111/6/2
f 111/6/3 48/5/3 49/7/3 5/8/3
f 5/8/4 49/7/4 50/9/4 112/10/4
f 112/10/5 50/9/5 51/11/5 113/12/5
f 113/12/6 51/11/6 52/13/6 114/14/6
f 114/14/7 52/13/7 53/15/7 115/16/7
f 115/16/8 53/15/8 54/17/8 116/18/8
f 116/18/9 54/17/9 55/19/9 12/20/9
f 12/20/10 55/19/10 56/21/10 14/22/10
f 14/22/11 56/21/11 57/23/11 117/24/11
f 117/24/12 57/23/12 58/25/12 118/26/12
f 118/26/13 58/25/13 59/27/13 18/28/13
f 18/28/14 59/27/14 60/29/14 119/30/14
f 119/30/15 60/29/15 61/31/15 21/32/15
f 21/32/16 61/31/16 62/33/16 120/34/16
f 120/34/17 62/33/17 63/35/17 121/36/17
f 121/36/18 63/35/18 64/37/18 25/38/18
f 25/38/19 64/37/19 65/39/19 27/40/19
f 27/40/20 65/39/20 66/41/20 29/42/20
f 29/42/21 66/41/21 67/43/21 31/44/21
f 31/44/22 67/43/22 68/45/22 33/46/22
f 33/46/23 68/45/23 69/47/23 122/48/23
f 122/48/24 69/47/24 70/49/24 123/50/24
f 123/50/25 70/49/25 71/51/25 124/52/25
f 124/52/26 71/51/26 72/53/26 38/54/26
f 38/54/27 72/53/27 73/55/27 125/56/27
f 125/56/28 73/55/28 74/57/28 126/58/28
f 126/58/29 74/57/29 75/59/29 127/60/29
f 127/60/30 75/59/30 76/61/30 128/62/30
f 128/62/31 76/61/31 77/63/31 44/64/31
f 44/64/32 77/63/32 47/65/32 1/66/32
f 2/67/33 3/68/33 46/69/33 47/70/33
f 3/68/33 4/71/33 48/72/33 46/69/33
f 4/71/33 6/73/33 49/74/33 48/72/33
f 6/73/33 7/75/33 50/76/33 49/74/33
f 7/75/33 8/77/33 51/78/33 50/76/33
f 8/77/33 9/79/33 52/80/33 51/78/33
f 9/79/33 10/81/33 53/82/33 52/80/33
f 10/81/33 11/83/33 54/84/33 53/82/33
f 11/83/33 13/85/33 55/86/33 54/84/33
f 13/85/33 15/87/33 56/88/33 55/86/33
f 15/87/33 16/89/33 57/90/33 56/88/33
f 16/89/33 17/91/33 58/92/33 57/90/33
f 17/91/33 19/93/33 59/94/33 58/92/33
f 19/93/33 20/95/33 60/96/33 59/94/33
f 20/95/33 22/97/33 61/98/33 60/96/33
f 22/97/33 23/99/33 62/100/33 61/98/33
f 23/99/33 24/101/33 63/102/33 62/100/33
f 24/101/33 26/103/33 64/104/33 63/102/33
f 26/103/33 28/105/33 65/106/33 64/104/33
f 28/105/33 30/107/33 66/108/33 65/106/33
f 30/107/33 32/109/33 67/110/33 66/108/33
f 32/109/33 34/111/33 68/112/33 67/110/33
f 34/111/33 35/113/33 69/114/33 68/112/33
f 35/113/33 36/115/33 70/116/33 69/114/33
f 36/115/33 37/117/33 71/118/33 70/116/33
f 37/117/33 39/119/33 72/120/33 71/118/33
f 39/119/33 40/121/33 73/122/33 72/120/33
f 40/121/33 41/123/33 74/124/33 73/122/33
f 41/123/33 42/125/33 75/126/33 74/124/33
f 42/125/33 43/127/33 76/128/33 75/126/33
f 43/127/33 45/129/33 77/130/33 76/128/33
f 45/129/33 2/67/33 47/70/33 77/130/33
f 78/131/33 130/132/33 110/133/33 1/134/33
f 130/132/33 80/135/33 111/136/33 110/133/33
f 80/135/33 132/137/33 5/138/33 111/136/33
f 132/137/33 82/139/33 112/140/33 5/138/33
f 82/139/33 83/141/33 113/142/33 112/140/33
f 83/141/33 135/143/33 114/144/33 113/142/33
f 135/143/33 85/145/33 115/146/33 114/144/33
f 85/145/33 86/147/33 116/148/33 115/146/33
f 86/147/33 138/149/33 12/150/33 116/148/33
f 138/149/33 139/151/33 14/152/33 12/150/33
f 139/151/33 140/153/33 117/154/33 14/152/33
f 140/153/33 90/155/33 118/156/33 117/154/33
f 90/155/33 91/157/33 18/158/33 118/156/33
f 91/157/33 92/159/33 119/160/33 18/158/33
f 92/159/33 144/161/33 21/162/33 119/160/33
f 144/161/33 145/163/33 120/164/33 21/162/33
f 145/163/33 146/165/33 121/166/33 120/164/33
f 146/165/33 96/167/33 25/168/33 121/166/33
f 96/167/33 97/169/33 27/170/33 25/168/33
f 97/169/33 149/171/33 29/172/33 27/170/33
f 149/171/33 99/173/33 31/174/33 29/172/33
f 99/173/33 151/175/33 33/176/33 31/174/33
f 151/175/33 101/177/33 122/178/33 33/176/33
f 101/177/33 102/179/33 123/180/33 122/178/33
f 102/179/33 103/181/33 124/182/33 123/180/33
f 103/181/33 104/183/33 38/184/33 124/182/33
f 104/183/33 105/185/33 125/186/33 38/184/33
f 105/185/33 106/187/33 126/188/33 125/186/33
f 106/187/33 107/189/33 127/190/33 126/188/33
f 107/189/33 157/191/33 128/192/33 127/190/33
f 157/191/33 158/193/33 44/194/33 128/192/33
f 158/193/33 78/131/33 1/134/33 44/194/33
f 24/101/1 23/99/1 145/163/1 146/165/1
f 7/75/20 6/73/20 132/137/20 82/139/20
f 45/129/15 43/127/15 157/191/15 158/193/15
f 26/103/2 24/101/2 146/165/2 96/167/2
f 8/77/21 7/75/21 82/139/21 83/141/21
f 2/67/16 45/129/16 158/193/16 78/131/16
f 28/105/3 26/103/3 96/167/3 97/169/3
f 9/79/22 8/77/22 83/141/22 135/143/22
f 30/107/4 28/105/4 97/169/4 149/171/4
f 10/81/23 9/79/23 135/143/23 85/145/23
f 32/109/5 30/107/5 149/171/5 99/173/5
f 11/83/24 10/81/24 85/145/24 86/147/24
f 34/111/6 32/109/6 99/173/6 151/175/6
f 13/85/25 11/83/25 86/147/25 138/149/25
f 35/113/7 34/111/7 151/175/7 101/177/7
f 15/87/26 13/85/26 138/149/26 139/151/26
f 36/115/8 35/113/8 101/177/8 102/179/8
f 16/89/27 15/87/27 139/151/27 140/153/27
f 37/117/9 36/115/9 102/179/9 103/181/9
f 17/91/28 16/89/28 140/153/28 90/155/28
f 39/119/10 37/117/10 103/181/10 104/183/10
f 19/93/29 17/91/29 90/155/29 91/157/29
f 40/121/11 39/119/11 104/183/11 105/185/11
f 20/95/30 19/93/30 91/157/30 92/159/30
f 3/68/17 2/67/17 78/131/17 130/132/17
f 41/123/12 40/121/12 105/185/12 106/187/12
f 22/97/31 20/95/31 92/159/31 144/161/31
f 4/71/18 3/68/18 130/132/18 80/135/18
f 42/125/13 41/123/13 106/187/13 107/189/13
f 23/99/32 22/97/32 144/161/32 145/163/32
f 6/73/19 4/71/19 80/135/19 132/137/19
f 43/127/14 42/125/14 107/189/14 157/191/14
f 156/195/1 155/196/1 153/197/1 154/198/1
f 154/198/2 153/197/2 150/199/2 152/200/2
f 152/200/3 150/199/3 147/201/3 148/202/3
f 148/202/4 147/201/4 142/203/4 143/204/4
f 143/204/5 142/203/5 137/205/5 141/206/5
f 141/206/6 137/205/6 134/207/6 136/208/6
f 136/208/7 134/207/7 131/209/7 133/210/7
f 133/210/8 131/209/8 109/211/8 129/212/8
f 129/212/9 109/211/9 100/213/9 108/214/9
f 108/214/10 100/213/10 95/215/10 98/216/10
f 98/216/11 95/215/11 93/217/11 94/218/11
f 94/218/12 93/217/12 88/219/12 89/220/12
f 89/220/13 88/219/13 84/221/13 87/222/13
f 87/222/14 84/221/14 79/223/14 81/224/14
f 81/224/15 79/223/15 160/225/15 159/226/15
f 159/226/16 160/225/16 162/227/16 161/228/16
f 161/228/17 162/227/17 164/229/17 163/230/17
f 163/230/18 164/229/18 166/231/18 165/232/18
f 165/232/19 166/231/19 168/233/19 167/234/19
f 167/234/20 168/233/20 170/235/20 169/236/20
f 169/236/21 170/235/21 172/237/21 171/238/21
f 171/238/22 172/237/22 174/239/22 173/240/22
f 173/240/23 174/239/23 176/241/23 175/242/23
f 175/242/24 176/241/24 178/243/24 177/244/24
f 177/244/25 178/243/25 180/245/25 179/246/25
f 179/246/26 180/245/26 182/247/26 181/248/26
f 181/248/27 182/247/27 184/249/27 183/250/27
f 183/250/28 184/249/28 186/251/28 185/252/28
f 185/252/29 186/251/29 188/253/29 187/254/29
f 187/254/30 188/253/30 190/255/30 189/256/30
f 153/257/33 155/258/33 192/259/33 190/260/33 188/261/33 186/262/33 184/263/33 182/264/33 180/265/33 178/266/33 176/267/33 174/268/33 172/269/33 170/270/33 168/271/33 166/272/33 164/273/33 162/274/33 160/275/33 79/276/33 84/277/33 88/278/33 93/279/33 95/280/33 100/281/33 109/282/33 131/283/33 134/284/33 137/285/33 142/286/33 147/287/33 150/288/33
f 189/256/31 190/255/31 192/289/31 191/290/31
f 191/290/32 192/289/32 155/291/32 156/292/32
f 156/293/34 154/294/34 152/295/34 148/296/34 143/297/34 141/298/34 136/299/34 133/300/34 129/301/34 108/302/34 98/303/34 94/304/34 89/305/34 87/306/34 81/307/34 159/308/34 161/309/34 163/310/34 165/311/34 167/312/34 169/313/34 171/314/34 173/315/34 175/316/34 177/317/34 179/318/34 181/319/34 183/320/34 185/321/34 187/322/34 189/323/34 191/324/34
